<svg xmlns="http://www.w3.org/2000/svg" xmlns:xlink="http://www.w3.org/1999/xlink" >

  <symbol id="lapto" fill="none"  stroke="currentColor"  strokeWidth="2"  strokeLinecap="round"  strokeLinejoin="round" >
    <path stroke="none" d="M0 0h24v24H0z" fill="none" />
    <path d="M3 19l18 0" />
    <path d="M5 6m0 1a1 1 0 0 1 1 -1h12a1 1 0 0 1 1 1v8a1 1 0 0 1 -1 1h-12a1 1 0 0 1 -1 -1z" />
</symbol>

 <symbol id="telefono"  fill="none" stroke="currentColor"
    strokeWidth="2" strokeLinecap="round" strokeLinejoin="round">
    <path stroke="none" d="M0 0h24v24H0z" fill="none" />
    <path d="M6 5a2 2 0 0 1 2 -2h8a2 2 0 0 1 2 2v14a2 2 0 0 1 -2 2h-8a2 2 0 0 1 -2 -2v-14z" />
    <path d="M11 4h2" />
    <path d="M12 17v.01" />
</symbol>

<symbol id="tv" fill="none" stroke="currentColor" strokeWidth="2" strokeLinecap="round" strokeLinejoin="round">
    <path stroke="none" d="M0 0h24v24H0z" fill="none" />
    <path d="M3 7m0 2a2 2 0 0 1 2 -2h14a2 2 0 0 1 2 2v9a2 2 0 0 1 -2 2h-14a2 2 0 0 1 -2 -2z" />
    <path d="M16 3l-4 4l-4 -4" />
    <path d="M15 7v13" />
    <path d="M18 15v.01" />
    <path d="M18 12v.01" />

</symbol>
<symbol id="nevera" xmlns="http://www.w3.org/2000/svg"   fill="none" stroke="currentColor"
    strokeWidth="2" strokeLinecap="round" strokeLinejoin="round"
    className="icon icon-tabler icons-tabler-outline icon-tabler-fridge">
    <path stroke="none" d="M0 0h24v24H0z" fill="none" />
    <path d="M5 3m0 2a2 2 0 0 1 2 -2h10a2 2 0 0 1 2 2v14a2 2 0 0 1 -2 2h-10a2 2 0 0 1 -2 -2z" />
    <path d="M5 10h14" />
    <path d="M9 13v3" />
    <path d="M9 6v1" />
</symbol>
</svg>


